<?xml version="1.0" encoding="utf-8" standalone="no"?>
<!DOCTYPE svg PUBLIC "-//W3C//DTD SVG 1.1//EN"
  "http://www.w3.org/Graphics/SVG/1.1/DTD/svg11.dtd">
<svg xmlns:xlink="http://www.w3.org/1999/xlink" width="1296pt" height="360pt" viewBox="0 0 1296 360" xmlns="http://www.w3.org/2000/svg" version="1.1">
 <metadata>
  <rdf:RDF xmlns:dc="http://purl.org/dc/elements/1.1/" xmlns:cc="http://creativecommons.org/ns#" xmlns:rdf="http://www.w3.org/1999/02/22-rdf-syntax-ns#">
   <cc:Work>
    <dc:type rdf:resource="http://purl.org/dc/dcmitype/StillImage"/>
    <dc:date>2024-12-18T12:38:18.400260</dc:date>
    <dc:format>image/svg+xml</dc:format>
    <dc:creator>
     <cc:Agent>
      <dc:title>Matplotlib v3.9.3, https://matplotlib.org/</dc:title>
     </cc:Agent>
    </dc:creator>
   </cc:Work>
  </rdf:RDF>
 </metadata>
 <defs>
  <style type="text/css">*{stroke-linejoin: round; stroke-linecap: butt}</style>
 </defs>
 <g id="figure_1">
  <g id="patch_1">
   <path d="M 0 360 
L 1296 360 
L 1296 0 
L 0 0 
z
" style="fill: #ffffff"/>
  </g>
  <g id="axes_1">
   <g id="patch_2">
    <path d="M 64.064375 306.78125 
L 426.96 306.78125 
L 426.96 47.885375 
L 64.064375 47.885375 
z
" style="fill: #ffffff"/>
   </g>
   <g id="matplotlib.axis_1">
    <g id="xtick_1">
     <g id="line2d_1">
      <defs>
       <path id="m774f0fca77" d="M 0 0 
L 0 3.5 
" style="stroke: #000000; stroke-width: 0.8"/>
      </defs>
      <g>
       <use xlink:href="#m774f0fca77" x="64.064375" y="306.78125" style="stroke: #000000; stroke-width: 0.8"/>
      </g>
     </g>
     <g id="text_1">
      <!-- 0 -->
      <g transform="translate(59.610625 324.419062) scale(0.14 -0.14)">
       <defs>
        <path id="DejaVuSans-30" d="M 2034 4250 
Q 1547 4250 1301 3770 
Q 1056 3291 1056 2328 
Q 1056 1369 1301 889 
Q 1547 409 2034 409 
Q 2525 409 2770 889 
Q 3016 1369 3016 2328 
Q 3016 3291 2770 3770 
Q 2525 4250 2034 4250 
z
M 2034 4750 
Q 2819 4750 3233 4129 
Q 3647 3509 3647 2328 
Q 3647 1150 3233 529 
Q 2819 -91 2034 -91 
Q 1250 -91 836 529 
Q 422 1150 422 2328 
Q 422 3509 836 4129 
Q 1250 4750 2034 4750 
z
" transform="scale(0.015625)"/>
       </defs>
       <use xlink:href="#DejaVuSans-30"/>
      </g>
     </g>
    </g>
    <g id="xtick_2">
     <g id="line2d_2">
      <g>
       <use xlink:href="#m774f0fca77" x="206.842982" y="306.78125" style="stroke: #000000; stroke-width: 0.8"/>
      </g>
     </g>
     <g id="text_2">
      <!-- 96 -->
      <g transform="translate(197.935482 324.419062) scale(0.14 -0.14)">
       <defs>
        <path id="DejaVuSans-39" d="M 703 97 
L 703 672 
Q 941 559 1184 500 
Q 1428 441 1663 441 
Q 2288 441 2617 861 
Q 2947 1281 2994 2138 
Q 2813 1869 2534 1725 
Q 2256 1581 1919 1581 
Q 1219 1581 811 2004 
Q 403 2428 403 3163 
Q 403 3881 828 4315 
Q 1253 4750 1959 4750 
Q 2769 4750 3195 4129 
Q 3622 3509 3622 2328 
Q 3622 1225 3098 567 
Q 2575 -91 1691 -91 
Q 1453 -91 1209 -44 
Q 966 3 703 97 
z
M 1959 2075 
Q 2384 2075 2632 2365 
Q 2881 2656 2881 3163 
Q 2881 3666 2632 3958 
Q 2384 4250 1959 4250 
Q 1534 4250 1286 3958 
Q 1038 3666 1038 3163 
Q 1038 2656 1286 2365 
Q 1534 2075 1959 2075 
z
" transform="scale(0.015625)"/>
        <path id="DejaVuSans-36" d="M 2113 2584 
Q 1688 2584 1439 2293 
Q 1191 2003 1191 1497 
Q 1191 994 1439 701 
Q 1688 409 2113 409 
Q 2538 409 2786 701 
Q 3034 994 3034 1497 
Q 3034 2003 2786 2293 
Q 2538 2584 2113 2584 
z
M 3366 4563 
L 3366 3988 
Q 3128 4100 2886 4159 
Q 2644 4219 2406 4219 
Q 1781 4219 1451 3797 
Q 1122 3375 1075 2522 
Q 1259 2794 1537 2939 
Q 1816 3084 2150 3084 
Q 2853 3084 3261 2657 
Q 3669 2231 3669 1497 
Q 3669 778 3244 343 
Q 2819 -91 2113 -91 
Q 1303 -91 875 529 
Q 447 1150 447 2328 
Q 447 3434 972 4092 
Q 1497 4750 2381 4750 
Q 2619 4750 2861 4703 
Q 3103 4656 3366 4563 
z
" transform="scale(0.015625)"/>
       </defs>
       <use xlink:href="#DejaVuSans-39"/>
       <use xlink:href="#DejaVuSans-36" x="63.623047"/>
      </g>
     </g>
    </g>
    <g id="xtick_3">
     <g id="line2d_3">
      <g>
       <use xlink:href="#m774f0fca77" x="349.621588" y="306.78125" style="stroke: #000000; stroke-width: 0.8"/>
      </g>
     </g>
     <g id="text_3">
      <!-- 192 -->
      <g transform="translate(336.260338 324.419062) scale(0.14 -0.14)">
       <defs>
        <path id="DejaVuSans-31" d="M 794 531 
L 1825 531 
L 1825 4091 
L 703 3866 
L 703 4441 
L 1819 4666 
L 2450 4666 
L 2450 531 
L 3481 531 
L 3481 0 
L 794 0 
L 794 531 
z
" transform="scale(0.015625)"/>
        <path id="DejaVuSans-32" d="M 1228 531 
L 3431 531 
L 3431 0 
L 469 0 
L 469 531 
Q 828 903 1448 1529 
Q 2069 2156 2228 2338 
Q 2531 2678 2651 2914 
Q 2772 3150 2772 3378 
Q 2772 3750 2511 3984 
Q 2250 4219 1831 4219 
Q 1534 4219 1204 4116 
Q 875 4013 500 3803 
L 500 4441 
Q 881 4594 1212 4672 
Q 1544 4750 1819 4750 
Q 2544 4750 2975 4387 
Q 3406 4025 3406 3419 
Q 3406 3131 3298 2873 
Q 3191 2616 2906 2266 
Q 2828 2175 2409 1742 
Q 1991 1309 1228 531 
z
" transform="scale(0.015625)"/>
       </defs>
       <use xlink:href="#DejaVuSans-31"/>
       <use xlink:href="#DejaVuSans-39" x="63.623047"/>
       <use xlink:href="#DejaVuSans-32" x="127.246094"/>
      </g>
     </g>
    </g>
    <g id="text_4">
     <!-- Time (hr) -->
     <g transform="translate(213.384375 341.968437) scale(0.14 -0.14)">
      <defs>
       <path id="DejaVuSans-54" d="M -19 4666 
L 3928 4666 
L 3928 4134 
L 2272 4134 
L 2272 0 
L 1638 0 
L 1638 4134 
L -19 4134 
L -19 4666 
z
" transform="scale(0.015625)"/>
       <path id="DejaVuSans-69" d="M 603 3500 
L 1178 3500 
L 1178 0 
L 603 0 
L 603 3500 
z
M 603 4863 
L 1178 4863 
L 1178 4134 
L 603 4134 
L 603 4863 
z
" transform="scale(0.015625)"/>
       <path id="DejaVuSans-6d" d="M 3328 2828 
Q 3544 3216 3844 3400 
Q 4144 3584 4550 3584 
Q 5097 3584 5394 3201 
Q 5691 2819 5691 2113 
L 5691 0 
L 5113 0 
L 5113 2094 
Q 5113 2597 4934 2840 
Q 4756 3084 4391 3084 
Q 3944 3084 3684 2787 
Q 3425 2491 3425 1978 
L 3425 0 
L 2847 0 
L 2847 2094 
Q 2847 2600 2669 2842 
Q 2491 3084 2119 3084 
Q 1678 3084 1418 2786 
Q 1159 2488 1159 1978 
L 1159 0 
L 581 0 
L 581 3500 
L 1159 3500 
L 1159 2956 
Q 1356 3278 1631 3431 
Q 1906 3584 2284 3584 
Q 2666 3584 2933 3390 
Q 3200 3197 3328 2828 
z
" transform="scale(0.015625)"/>
       <path id="DejaVuSans-65" d="M 3597 1894 
L 3597 1613 
L 953 1613 
Q 991 1019 1311 708 
Q 1631 397 2203 397 
Q 2534 397 2845 478 
Q 3156 559 3463 722 
L 3463 178 
Q 3153 47 2828 -22 
Q 2503 -91 2169 -91 
Q 1331 -91 842 396 
Q 353 884 353 1716 
Q 353 2575 817 3079 
Q 1281 3584 2069 3584 
Q 2775 3584 3186 3129 
Q 3597 2675 3597 1894 
z
M 3022 2063 
Q 3016 2534 2758 2815 
Q 2500 3097 2075 3097 
Q 1594 3097 1305 2825 
Q 1016 2553 972 2059 
L 3022 2063 
z
" transform="scale(0.015625)"/>
       <path id="DejaVuSans-20" transform="scale(0.015625)"/>
       <path id="DejaVuSans-28" d="M 1984 4856 
Q 1566 4138 1362 3434 
Q 1159 2731 1159 2009 
Q 1159 1288 1364 580 
Q 1569 -128 1984 -844 
L 1484 -844 
Q 1016 -109 783 600 
Q 550 1309 550 2009 
Q 550 2706 781 3412 
Q 1013 4119 1484 4856 
L 1984 4856 
z
" transform="scale(0.015625)"/>
       <path id="DejaVuSans-68" d="M 3513 2113 
L 3513 0 
L 2938 0 
L 2938 2094 
Q 2938 2591 2744 2837 
Q 2550 3084 2163 3084 
Q 1697 3084 1428 2787 
Q 1159 2491 1159 1978 
L 1159 0 
L 581 0 
L 581 4863 
L 1159 4863 
L 1159 2956 
Q 1366 3272 1645 3428 
Q 1925 3584 2291 3584 
Q 2894 3584 3203 3211 
Q 3513 2838 3513 2113 
z
" transform="scale(0.015625)"/>
       <path id="DejaVuSans-72" d="M 2631 2963 
Q 2534 3019 2420 3045 
Q 2306 3072 2169 3072 
Q 1681 3072 1420 2755 
Q 1159 2438 1159 1844 
L 1159 0 
L 581 0 
L 581 3500 
L 1159 3500 
L 1159 2956 
Q 1341 3275 1631 3429 
Q 1922 3584 2338 3584 
Q 2397 3584 2469 3576 
Q 2541 3569 2628 3553 
L 2631 2963 
z
" transform="scale(0.015625)"/>
       <path id="DejaVuSans-29" d="M 513 4856 
L 1013 4856 
Q 1481 4119 1714 3412 
Q 1947 2706 1947 2009 
Q 1947 1309 1714 600 
Q 1481 -109 1013 -844 
L 513 -844 
Q 928 -128 1133 580 
Q 1338 1288 1338 2009 
Q 1338 2731 1133 3434 
Q 928 4138 513 4856 
z
" transform="scale(0.015625)"/>
      </defs>
      <use xlink:href="#DejaVuSans-54"/>
      <use xlink:href="#DejaVuSans-69" x="57.958984"/>
      <use xlink:href="#DejaVuSans-6d" x="85.742188"/>
      <use xlink:href="#DejaVuSans-65" x="183.154297"/>
      <use xlink:href="#DejaVuSans-20" x="244.677734"/>
      <use xlink:href="#DejaVuSans-28" x="276.464844"/>
      <use xlink:href="#DejaVuSans-68" x="315.478516"/>
      <use xlink:href="#DejaVuSans-72" x="378.857422"/>
      <use xlink:href="#DejaVuSans-29" x="419.970703"/>
     </g>
    </g>
   </g>
   <g id="matplotlib.axis_2">
    <g id="ytick_1">
     <g id="line2d_4">
      <path d="M 64.064375 263.284688 
L 426.96 263.284688 
" clip-path="url(#pca2416c238)" style="fill: none; stroke: #b0b0b0; stroke-width: 0.8; stroke-linecap: square"/>
     </g>
     <g id="line2d_5">
      <defs>
       <path id="m3b4c996269" d="M 0 0 
L -3.5 0 
" style="stroke: #000000; stroke-width: 0.8"/>
      </defs>
      <g>
       <use xlink:href="#m3b4c996269" x="64.064375" y="263.284688" style="stroke: #000000; stroke-width: 0.8"/>
      </g>
     </g>
     <g id="text_5">
      <!-- 0.5 -->
      <g transform="translate(34.8 268.603594) scale(0.14 -0.14)">
       <defs>
        <path id="DejaVuSans-2e" d="M 684 794 
L 1344 794 
L 1344 0 
L 684 0 
L 684 794 
z
" transform="scale(0.015625)"/>
        <path id="DejaVuSans-35" d="M 691 4666 
L 3169 4666 
L 3169 4134 
L 1269 4134 
L 1269 2991 
Q 1406 3038 1543 3061 
Q 1681 3084 1819 3084 
Q 2600 3084 3056 2656 
Q 3513 2228 3513 1497 
Q 3513 744 3044 326 
Q 2575 -91 1722 -91 
Q 1428 -91 1123 -41 
Q 819 9 494 109 
L 494 744 
Q 775 591 1075 516 
Q 1375 441 1709 441 
Q 2250 441 2565 725 
Q 2881 1009 2881 1497 
Q 2881 1984 2565 2268 
Q 2250 2553 1709 2553 
Q 1456 2553 1204 2497 
Q 953 2441 691 2322 
L 691 4666 
z
" transform="scale(0.015625)"/>
       </defs>
       <use xlink:href="#DejaVuSans-30"/>
       <use xlink:href="#DejaVuSans-2e" x="63.623047"/>
       <use xlink:href="#DejaVuSans-35" x="95.410156"/>
      </g>
     </g>
    </g>
    <g id="ytick_2">
     <g id="line2d_6">
      <path d="M 64.064375 210.403741 
L 426.96 210.403741 
" clip-path="url(#pca2416c238)" style="fill: none; stroke: #b0b0b0; stroke-width: 0.8; stroke-linecap: square"/>
     </g>
     <g id="line2d_7">
      <g>
       <use xlink:href="#m3b4c996269" x="64.064375" y="210.403741" style="stroke: #000000; stroke-width: 0.8"/>
      </g>
     </g>
     <g id="text_6">
      <!-- 1.0 -->
      <g transform="translate(34.8 215.722647) scale(0.14 -0.14)">
       <use xlink:href="#DejaVuSans-31"/>
       <use xlink:href="#DejaVuSans-2e" x="63.623047"/>
       <use xlink:href="#DejaVuSans-30" x="95.410156"/>
      </g>
     </g>
    </g>
    <g id="ytick_3">
     <g id="line2d_8">
      <path d="M 64.064375 157.522794 
L 426.96 157.522794 
" clip-path="url(#pca2416c238)" style="fill: none; stroke: #b0b0b0; stroke-width: 0.8; stroke-linecap: square"/>
     </g>
     <g id="line2d_9">
      <g>
       <use xlink:href="#m3b4c996269" x="64.064375" y="157.522794" style="stroke: #000000; stroke-width: 0.8"/>
      </g>
     </g>
     <g id="text_7">
      <!-- 1.5 -->
      <g transform="translate(34.8 162.8417) scale(0.14 -0.14)">
       <use xlink:href="#DejaVuSans-31"/>
       <use xlink:href="#DejaVuSans-2e" x="63.623047"/>
       <use xlink:href="#DejaVuSans-35" x="95.410156"/>
      </g>
     </g>
    </g>
    <g id="ytick_4">
     <g id="line2d_10">
      <path d="M 64.064375 104.641847 
L 426.96 104.641847 
" clip-path="url(#pca2416c238)" style="fill: none; stroke: #b0b0b0; stroke-width: 0.8; stroke-linecap: square"/>
     </g>
     <g id="line2d_11">
      <g>
       <use xlink:href="#m3b4c996269" x="64.064375" y="104.641847" style="stroke: #000000; stroke-width: 0.8"/>
      </g>
     </g>
     <g id="text_8">
      <!-- 2.0 -->
      <g transform="translate(34.8 109.960753) scale(0.14 -0.14)">
       <use xlink:href="#DejaVuSans-32"/>
       <use xlink:href="#DejaVuSans-2e" x="63.623047"/>
       <use xlink:href="#DejaVuSans-30" x="95.410156"/>
      </g>
     </g>
    </g>
    <g id="ytick_5">
     <g id="line2d_12">
      <path d="M 64.064375 51.7609 
L 426.96 51.7609 
" clip-path="url(#pca2416c238)" style="fill: none; stroke: #b0b0b0; stroke-width: 0.8; stroke-linecap: square"/>
     </g>
     <g id="line2d_13">
      <g>
       <use xlink:href="#m3b4c996269" x="64.064375" y="51.7609" style="stroke: #000000; stroke-width: 0.8"/>
      </g>
     </g>
     <g id="text_9">
      <!-- 2.5 -->
      <g transform="translate(34.8 57.079806) scale(0.14 -0.14)">
       <use xlink:href="#DejaVuSans-32"/>
       <use xlink:href="#DejaVuSans-2e" x="63.623047"/>
       <use xlink:href="#DejaVuSans-35" x="95.410156"/>
      </g>
     </g>
    </g>
    <g id="text_10">
     <!-- Viable Cell Density ($10^6$ cells / mL) -->
     <g transform="translate(27.86 298.643313) rotate(-90) scale(0.14 -0.14)">
      <defs>
       <path id="DejaVuSans-56" d="M 1831 0 
L 50 4666 
L 709 4666 
L 2188 738 
L 3669 4666 
L 4325 4666 
L 2547 0 
L 1831 0 
z
" transform="scale(0.015625)"/>
       <path id="DejaVuSans-61" d="M 2194 1759 
Q 1497 1759 1228 1600 
Q 959 1441 959 1056 
Q 959 750 1161 570 
Q 1363 391 1709 391 
Q 2188 391 2477 730 
Q 2766 1069 2766 1631 
L 2766 1759 
L 2194 1759 
z
M 3341 1997 
L 3341 0 
L 2766 0 
L 2766 531 
Q 2569 213 2275 61 
Q 1981 -91 1556 -91 
Q 1019 -91 701 211 
Q 384 513 384 1019 
Q 384 1609 779 1909 
Q 1175 2209 1959 2209 
L 2766 2209 
L 2766 2266 
Q 2766 2663 2505 2880 
Q 2244 3097 1772 3097 
Q 1472 3097 1187 3025 
Q 903 2953 641 2809 
L 641 3341 
Q 956 3463 1253 3523 
Q 1550 3584 1831 3584 
Q 2591 3584 2966 3190 
Q 3341 2797 3341 1997 
z
" transform="scale(0.015625)"/>
       <path id="DejaVuSans-62" d="M 3116 1747 
Q 3116 2381 2855 2742 
Q 2594 3103 2138 3103 
Q 1681 3103 1420 2742 
Q 1159 2381 1159 1747 
Q 1159 1113 1420 752 
Q 1681 391 2138 391 
Q 2594 391 2855 752 
Q 3116 1113 3116 1747 
z
M 1159 2969 
Q 1341 3281 1617 3432 
Q 1894 3584 2278 3584 
Q 2916 3584 3314 3078 
Q 3713 2572 3713 1747 
Q 3713 922 3314 415 
Q 2916 -91 2278 -91 
Q 1894 -91 1617 61 
Q 1341 213 1159 525 
L 1159 0 
L 581 0 
L 581 4863 
L 1159 4863 
L 1159 2969 
z
" transform="scale(0.015625)"/>
       <path id="DejaVuSans-6c" d="M 603 4863 
L 1178 4863 
L 1178 0 
L 603 0 
L 603 4863 
z
" transform="scale(0.015625)"/>
       <path id="DejaVuSans-43" d="M 4122 4306 
L 4122 3641 
Q 3803 3938 3442 4084 
Q 3081 4231 2675 4231 
Q 1875 4231 1450 3742 
Q 1025 3253 1025 2328 
Q 1025 1406 1450 917 
Q 1875 428 2675 428 
Q 3081 428 3442 575 
Q 3803 722 4122 1019 
L 4122 359 
Q 3791 134 3420 21 
Q 3050 -91 2638 -91 
Q 1578 -91 968 557 
Q 359 1206 359 2328 
Q 359 3453 968 4101 
Q 1578 4750 2638 4750 
Q 3056 4750 3426 4639 
Q 3797 4528 4122 4306 
z
" transform="scale(0.015625)"/>
       <path id="DejaVuSans-44" d="M 1259 4147 
L 1259 519 
L 2022 519 
Q 2988 519 3436 956 
Q 3884 1394 3884 2338 
Q 3884 3275 3436 3711 
Q 2988 4147 2022 4147 
L 1259 4147 
z
M 628 4666 
L 1925 4666 
Q 3281 4666 3915 4102 
Q 4550 3538 4550 2338 
Q 4550 1131 3912 565 
Q 3275 0 1925 0 
L 628 0 
L 628 4666 
z
" transform="scale(0.015625)"/>
       <path id="DejaVuSans-6e" d="M 3513 2113 
L 3513 0 
L 2938 0 
L 2938 2094 
Q 2938 2591 2744 2837 
Q 2550 3084 2163 3084 
Q 1697 3084 1428 2787 
Q 1159 2491 1159 1978 
L 1159 0 
L 581 0 
L 581 3500 
L 1159 3500 
L 1159 2956 
Q 1366 3272 1645 3428 
Q 1925 3584 2291 3584 
Q 2894 3584 3203 3211 
Q 3513 2838 3513 2113 
z
" transform="scale(0.015625)"/>
       <path id="DejaVuSans-73" d="M 2834 3397 
L 2834 2853 
Q 2591 2978 2328 3040 
Q 2066 3103 1784 3103 
Q 1356 3103 1142 2972 
Q 928 2841 928 2578 
Q 928 2378 1081 2264 
Q 1234 2150 1697 2047 
L 1894 2003 
Q 2506 1872 2764 1633 
Q 3022 1394 3022 966 
Q 3022 478 2636 193 
Q 2250 -91 1575 -91 
Q 1294 -91 989 -36 
Q 684 19 347 128 
L 347 722 
Q 666 556 975 473 
Q 1284 391 1588 391 
Q 1994 391 2212 530 
Q 2431 669 2431 922 
Q 2431 1156 2273 1281 
Q 2116 1406 1581 1522 
L 1381 1569 
Q 847 1681 609 1914 
Q 372 2147 372 2553 
Q 372 3047 722 3315 
Q 1072 3584 1716 3584 
Q 2034 3584 2315 3537 
Q 2597 3491 2834 3397 
z
" transform="scale(0.015625)"/>
       <path id="DejaVuSans-74" d="M 1172 4494 
L 1172 3500 
L 2356 3500 
L 2356 3053 
L 1172 3053 
L 1172 1153 
Q 1172 725 1289 603 
Q 1406 481 1766 481 
L 2356 481 
L 2356 0 
L 1766 0 
Q 1100 0 847 248 
Q 594 497 594 1153 
L 594 3053 
L 172 3053 
L 172 3500 
L 594 3500 
L 594 4494 
L 1172 4494 
z
" transform="scale(0.015625)"/>
       <path id="DejaVuSans-79" d="M 2059 -325 
Q 1816 -950 1584 -1140 
Q 1353 -1331 966 -1331 
L 506 -1331 
L 506 -850 
L 844 -850 
Q 1081 -850 1212 -737 
Q 1344 -625 1503 -206 
L 1606 56 
L 191 3500 
L 800 3500 
L 1894 763 
L 2988 3500 
L 3597 3500 
L 2059 -325 
z
" transform="scale(0.015625)"/>
       <path id="DejaVuSans-63" d="M 3122 3366 
L 3122 2828 
Q 2878 2963 2633 3030 
Q 2388 3097 2138 3097 
Q 1578 3097 1268 2742 
Q 959 2388 959 1747 
Q 959 1106 1268 751 
Q 1578 397 2138 397 
Q 2388 397 2633 464 
Q 2878 531 3122 666 
L 3122 134 
Q 2881 22 2623 -34 
Q 2366 -91 2075 -91 
Q 1284 -91 818 406 
Q 353 903 353 1747 
Q 353 2603 823 3093 
Q 1294 3584 2113 3584 
Q 2378 3584 2631 3529 
Q 2884 3475 3122 3366 
z
" transform="scale(0.015625)"/>
       <path id="DejaVuSans-2f" d="M 1625 4666 
L 2156 4666 
L 531 -594 
L 0 -594 
L 1625 4666 
z
" transform="scale(0.015625)"/>
       <path id="DejaVuSans-4c" d="M 628 4666 
L 1259 4666 
L 1259 531 
L 3531 531 
L 3531 0 
L 628 0 
L 628 4666 
z
" transform="scale(0.015625)"/>
      </defs>
      <use xlink:href="#DejaVuSans-56" transform="translate(0 0.765625)"/>
      <use xlink:href="#DejaVuSans-69" transform="translate(68.408203 0.765625)"/>
      <use xlink:href="#DejaVuSans-61" transform="translate(96.191406 0.765625)"/>
      <use xlink:href="#DejaVuSans-62" transform="translate(157.470703 0.765625)"/>
      <use xlink:href="#DejaVuSans-6c" transform="translate(220.947266 0.765625)"/>
      <use xlink:href="#DejaVuSans-65" transform="translate(248.730469 0.765625)"/>
      <use xlink:href="#DejaVuSans-20" transform="translate(310.253906 0.765625)"/>
      <use xlink:href="#DejaVuSans-43" transform="translate(342.041016 0.765625)"/>
      <use xlink:href="#DejaVuSans-65" transform="translate(411.865234 0.765625)"/>
      <use xlink:href="#DejaVuSans-6c" transform="translate(473.388672 0.765625)"/>
      <use xlink:href="#DejaVuSans-6c" transform="translate(501.171875 0.765625)"/>
      <use xlink:href="#DejaVuSans-20" transform="translate(528.955078 0.765625)"/>
      <use xlink:href="#DejaVuSans-44" transform="translate(560.742188 0.765625)"/>
      <use xlink:href="#DejaVuSans-65" transform="translate(637.744141 0.765625)"/>
      <use xlink:href="#DejaVuSans-6e" transform="translate(699.267578 0.765625)"/>
      <use xlink:href="#DejaVuSans-73" transform="translate(762.646484 0.765625)"/>
      <use xlink:href="#DejaVuSans-69" transform="translate(814.746094 0.765625)"/>
      <use xlink:href="#DejaVuSans-74" transform="translate(842.529297 0.765625)"/>
      <use xlink:href="#DejaVuSans-79" transform="translate(881.738281 0.765625)"/>
      <use xlink:href="#DejaVuSans-20" transform="translate(940.917969 0.765625)"/>
      <use xlink:href="#DejaVuSans-28" transform="translate(972.705078 0.765625)"/>
      <use xlink:href="#DejaVuSans-31" transform="translate(1011.71875 0.765625)"/>
      <use xlink:href="#DejaVuSans-30" transform="translate(1075.341797 0.765625)"/>
      <use xlink:href="#DejaVuSans-36" transform="translate(1139.921875 39.046875) scale(0.7)"/>
      <use xlink:href="#DejaVuSans-20" transform="translate(1187.192383 0.765625)"/>
      <use xlink:href="#DejaVuSans-63" transform="translate(1218.979492 0.765625)"/>
      <use xlink:href="#DejaVuSans-65" transform="translate(1273.959961 0.765625)"/>
      <use xlink:href="#DejaVuSans-6c" transform="translate(1335.483398 0.765625)"/>
      <use xlink:href="#DejaVuSans-6c" transform="translate(1363.266602 0.765625)"/>
      <use xlink:href="#DejaVuSans-73" transform="translate(1391.049805 0.765625)"/>
      <use xlink:href="#DejaVuSans-20" transform="translate(1443.149414 0.765625)"/>
      <use xlink:href="#DejaVuSans-2f" transform="translate(1474.936523 0.765625)"/>
      <use xlink:href="#DejaVuSans-20" transform="translate(1508.62793 0.765625)"/>
      <use xlink:href="#DejaVuSans-6d" transform="translate(1540.415039 0.765625)"/>
      <use xlink:href="#DejaVuSans-4c" transform="translate(1637.827148 0.765625)"/>
      <use xlink:href="#DejaVuSans-29" transform="translate(1693.540039 0.765625)"/>
     </g>
    </g>
   </g>
   <g id="line2d_14">
    <path d="M 64.064375 295.013256 
L 71.082458 292.025726 
L 77.822081 288.949875 
L 85.621381 285.13479 
L 93.023853 281.258729 
L 100.564558 277.054863 
L 108.105262 272.594871 
L 115.645967 267.882191 
L 125.216244 261.545776 
L 134.786521 254.826387 
L 144.356798 247.744414 
L 153.120623 240.962705 
L 161.884448 233.92112 
L 170.648273 226.645695 
L 179.96394 218.688033 
L 193.93744 206.399826 
L 209.683749 192.199716 
L 249.429805 156.034705 
L 261.142542 145.637323 
L 271.847336 136.357125 
L 281.544187 128.179264 
L 291.241037 120.255611 
L 301.086295 112.504453 
L 311.07996 104.971452 
L 321.172029 97.737961 
L 331.021767 91.069452 
L 340.386842 85.114468 
L 349.392929 79.768991 
L 357.68104 75.207439 
L 365.267552 71.362181 
L 371.450865 68.488372 
L 378.033191 65.722922 
L 383.772248 63.602905 
L 388.643592 62.06269 
L 392.845087 60.971519 
L 396.779649 60.200595 
L 400.310655 59.771342 
L 403.023833 59.653369 
L 405.493272 59.741096 
L 408.096711 60.070691 
L 410.581222 60.641777 
L 412.914685 61.419798 
L 415.484696 62.537526 
L 418.108005 63.918543 
L 421.650557 66.055051 
L 426.96 69.554676 
L 426.96 69.554676 
" clip-path="url(#pca2416c238)" style="fill: none; stroke-dasharray: 1.5,2.475; stroke-dashoffset: 0; stroke: #000000; stroke-width: 1.5"/>
   </g>
   <g id="line2d_15">
    <path d="M 64.064375 295.013256 
L 72.793403 291.627942 
L 80.149409 288.597521 
L 90.533822 284.052262 
L 102.166482 278.607159 
L 113.799141 272.815449 
L 123.519212 267.734473 
L 133.239282 262.457778 
L 147.730164 254.283364 
L 162.042597 245.930064 
L 182.45344 233.733341 
L 210.478498 216.947801 
L 223.051732 209.586424 
L 235.624967 202.423916 
L 247.650916 195.815295 
L 259.129582 189.773208 
L 270.608247 184.028499 
L 282.0401 178.634844 
L 293.425142 173.615148 
L 304.810183 168.968757 
L 316.237677 164.698349 
L 327.707622 160.822477 
L 339.177568 157.368721 
L 349.50233 154.62795 
L 358.681909 152.488707 
L 367.861488 150.633685 
L 375.91384 149.244359 
L 382.838967 148.230986 
L 389.764094 147.389764 
L 398.845951 146.557695 
L 407.274892 146.077576 
L 414.320906 145.91136 
L 420.675456 145.96588 
L 426.96 146.237031 
L 426.96 146.237031 
" clip-path="url(#pca2416c238)" style="fill: none; stroke: #1f77b4; stroke-width: 1.5; stroke-linecap: square"/>
   </g>
   <g id="line2d_16">
    <path d="M 64.064375 295.013256 
L 71.823415 292.024982 
L 81.068624 288.231666 
L 88.023609 285.216499 
L 96.086488 281.554312 
L 104.149368 277.721419 
L 112.212247 273.727849 
L 121.974529 268.693923 
L 131.736811 263.463994 
L 146.258632 255.376886 
L 160.537249 247.147709 
L 180.876782 235.14265 
L 208.822434 218.601177 
L 221.431916 211.301597 
L 234.041397 204.197776 
L 245.619083 197.899792 
L 256.164974 192.387517 
L 266.710864 187.119167 
L 277.646483 181.940996 
L 288.971831 176.909799 
L 300.297179 172.238405 
L 311.768709 167.892394 
L 323.386423 163.901929 
L 335.004136 160.33686 
L 345.588694 157.466838 
L 355.140095 155.191102 
L 364.691497 153.217396 
L 373.124897 151.729346 
L 380.440296 150.635296 
L 387.755695 149.72804 
L 397.351156 148.830888 
L 406.257798 148.311895 
L 413.679377 148.12916 
L 420.358426 148.179463 
L 426.96 148.455772 
L 426.96 148.455772 
" clip-path="url(#pca2416c238)" style="fill: none; stroke: #ff7f0e; stroke-width: 1.5; stroke-linecap: square"/>
   </g>
   <g id="line2d_17">
    <path d="M 64.064375 295.013256 
L 72.594056 291.715595 
L 80.463894 288.481314 
L 88.672617 284.917958 
L 98.138915 280.578184 
L 110.120363 274.753151 
L 118.107996 270.679439 
L 127.940037 265.476315 
L 142.6881 257.33359 
L 157.336328 248.928299 
L 176.800742 237.446963 
L 214.092327 215.338208 
L 226.315316 208.3035 
L 238.538304 201.474589 
L 250.761293 194.905239 
L 262.141284 189.064816 
L 273.521275 183.525668 
L 284.901267 178.317453 
L 296.378932 173.425099 
L 307.856597 168.915739 
L 319.334262 164.806006 
L 330.692498 161.145047 
L 342.050734 157.897492 
L 353.40897 155.070808 
L 362.081034 153.200111 
L 370.753098 151.581945 
L 379.425161 150.220591 
L 389.067151 149.016127 
L 395.495143 148.400176 
L 403.947526 147.829468 
L 411.805106 147.559563 
L 418.420953 147.546294 
L 424.415933 147.723813 
L 426.96 147.859762 
L 426.96 147.859762 
" clip-path="url(#pca2416c238)" style="fill: none; stroke: #2ca02c; stroke-width: 1.5; stroke-linecap: square"/>
   </g>
   <g id="line2d_18">
    <path d="M 64.064375 295.013256 
L 72.696211 291.696762 
L 80.628724 288.459397 
L 88.926821 284.885443 
L 98.477545 280.545756 
L 110.533522 274.74522 
L 123.508229 268.140222 
L 133.38301 262.893658 
L 148.19518 254.731854 
L 162.941695 246.346596 
L 196.685847 226.76346 
L 215.683484 215.886043 
L 227.80798 209.136501 
L 239.932477 202.602374 
L 252.056973 196.333474 
L 263.451018 190.72379 
L 274.845062 185.419939 
L 286.239107 180.449547 
L 297.808577 175.767476 
L 309.378047 171.472346 
L 320.947517 167.579251 
L 332.433243 164.123197 
L 343.918969 161.082661 
L 355.404694 158.463764 
L 364.184797 156.749468 
L 372.9649 155.287406 
L 381.745003 154.081277 
L 391.520566 153.046452 
L 398.037609 152.542682 
L 406.616667 152.117558 
L 414.597472 151.981405 
L 421.326313 152.079712 
L 426.96 152.329511 
L 426.96 152.329511 
" clip-path="url(#pca2416c238)" style="fill: none; stroke: #d62728; stroke-width: 1.5; stroke-linecap: square"/>
   </g>
   <g id="patch_3">
    <path d="M 64.064375 306.78125 
L 64.064375 47.885375 
" style="fill: none; stroke: #000000; stroke-width: 0.8; stroke-linejoin: miter; stroke-linecap: square"/>
   </g>
   <g id="patch_4">
    <path d="M 426.96 306.78125 
L 426.96 47.885375 
" style="fill: none; stroke: #000000; stroke-width: 0.8; stroke-linejoin: miter; stroke-linecap: square"/>
   </g>
   <g id="patch_5">
    <path d="M 64.064375 306.78125 
L 426.96 306.78125 
" style="fill: none; stroke: #000000; stroke-width: 0.8; stroke-linejoin: miter; stroke-linecap: square"/>
   </g>
   <g id="patch_6">
    <path d="M 64.064375 47.885375 
L 426.96 47.885375 
" style="fill: none; stroke: #000000; stroke-width: 0.8; stroke-linejoin: miter; stroke-linecap: square"/>
   </g>
   <g id="text_11">
    <!-- Eddy damage -->
    <g transform="translate(187.586313 27.885375) scale(0.168 -0.168)">
     <defs>
      <path id="DejaVuSans-45" d="M 628 4666 
L 3578 4666 
L 3578 4134 
L 1259 4134 
L 1259 2753 
L 3481 2753 
L 3481 2222 
L 1259 2222 
L 1259 531 
L 3634 531 
L 3634 0 
L 628 0 
L 628 4666 
z
" transform="scale(0.015625)"/>
      <path id="DejaVuSans-64" d="M 2906 2969 
L 2906 4863 
L 3481 4863 
L 3481 0 
L 2906 0 
L 2906 525 
Q 2725 213 2448 61 
Q 2172 -91 1784 -91 
Q 1150 -91 751 415 
Q 353 922 353 1747 
Q 353 2572 751 3078 
Q 1150 3584 1784 3584 
Q 2172 3584 2448 3432 
Q 2725 3281 2906 2969 
z
M 947 1747 
Q 947 1113 1208 752 
Q 1469 391 1925 391 
Q 2381 391 2643 752 
Q 2906 1113 2906 1747 
Q 2906 2381 2643 2742 
Q 2381 3103 1925 3103 
Q 1469 3103 1208 2742 
Q 947 2381 947 1747 
z
" transform="scale(0.015625)"/>
      <path id="DejaVuSans-67" d="M 2906 1791 
Q 2906 2416 2648 2759 
Q 2391 3103 1925 3103 
Q 1463 3103 1205 2759 
Q 947 2416 947 1791 
Q 947 1169 1205 825 
Q 1463 481 1925 481 
Q 2391 481 2648 825 
Q 2906 1169 2906 1791 
z
M 3481 434 
Q 3481 -459 3084 -895 
Q 2688 -1331 1869 -1331 
Q 1566 -1331 1297 -1286 
Q 1028 -1241 775 -1147 
L 775 -588 
Q 1028 -725 1275 -790 
Q 1522 -856 1778 -856 
Q 2344 -856 2625 -561 
Q 2906 -266 2906 331 
L 2906 616 
Q 2728 306 2450 153 
Q 2172 0 1784 0 
Q 1141 0 747 490 
Q 353 981 353 1791 
Q 353 2603 747 3093 
Q 1141 3584 1784 3584 
Q 2172 3584 2450 3431 
Q 2728 3278 2906 2969 
L 2906 3500 
L 3481 3500 
L 3481 434 
z
" transform="scale(0.015625)"/>
     </defs>
     <use xlink:href="#DejaVuSans-45"/>
     <use xlink:href="#DejaVuSans-64" x="63.183594"/>
     <use xlink:href="#DejaVuSans-64" x="126.660156"/>
     <use xlink:href="#DejaVuSans-79" x="190.136719"/>
     <use xlink:href="#DejaVuSans-20" x="249.316406"/>
     <use xlink:href="#DejaVuSans-64" x="281.103516"/>
     <use xlink:href="#DejaVuSans-61" x="344.580078"/>
     <use xlink:href="#DejaVuSans-6d" x="405.859375"/>
     <use xlink:href="#DejaVuSans-61" x="503.271484"/>
     <use xlink:href="#DejaVuSans-67" x="564.550781"/>
     <use xlink:href="#DejaVuSans-65" x="628.027344"/>
    </g>
   </g>
   <g id="legend_1">
    <g id="patch_7">
     <path d="M 73.864375 161.83225 
L 197.738125 161.83225 
Q 200.538125 161.83225 200.538125 159.03225 
L 200.538125 57.685375 
Q 200.538125 54.885375 197.738125 54.885375 
L 73.864375 54.885375 
Q 71.064375 54.885375 71.064375 57.685375 
L 71.064375 159.03225 
Q 71.064375 161.83225 73.864375 161.83225 
z
" style="fill: #ffffff; opacity: 0.8; stroke: #cccccc; stroke-linejoin: miter"/>
    </g>
    <g id="line2d_19">
     <path d="M 76.664375 66.223188 
L 90.664375 66.223188 
L 104.664375 66.223188 
" style="fill: none; stroke-dasharray: 1.5,2.475; stroke-dashoffset: 0; stroke: #000000; stroke-width: 1.5"/>
    </g>
    <g id="text_12">
     <!-- no damage -->
     <g transform="translate(115.864375 71.123188) scale(0.14 -0.14)">
      <defs>
       <path id="DejaVuSans-6f" d="M 1959 3097 
Q 1497 3097 1228 2736 
Q 959 2375 959 1747 
Q 959 1119 1226 758 
Q 1494 397 1959 397 
Q 2419 397 2687 759 
Q 2956 1122 2956 1747 
Q 2956 2369 2687 2733 
Q 2419 3097 1959 3097 
z
M 1959 3584 
Q 2709 3584 3137 3096 
Q 3566 2609 3566 1747 
Q 3566 888 3137 398 
Q 2709 -91 1959 -91 
Q 1206 -91 779 398 
Q 353 888 353 1747 
Q 353 2609 779 3096 
Q 1206 3584 1959 3584 
z
" transform="scale(0.015625)"/>
      </defs>
      <use xlink:href="#DejaVuSans-6e"/>
      <use xlink:href="#DejaVuSans-6f" x="63.378906"/>
      <use xlink:href="#DejaVuSans-20" x="124.560547"/>
      <use xlink:href="#DejaVuSans-64" x="156.347656"/>
      <use xlink:href="#DejaVuSans-61" x="219.824219"/>
      <use xlink:href="#DejaVuSans-6d" x="281.103516"/>
      <use xlink:href="#DejaVuSans-61" x="378.515625"/>
      <use xlink:href="#DejaVuSans-67" x="439.794922"/>
      <use xlink:href="#DejaVuSans-65" x="503.271484"/>
     </g>
    </g>
    <g id="line2d_20">
     <path d="M 76.664375 86.772563 
L 90.664375 86.772563 
L 104.664375 86.772563 
" style="fill: none; stroke: #1f77b4; stroke-width: 1.5; stroke-linecap: square"/>
    </g>
    <g id="text_13">
     <!-- 200L -->
     <g transform="translate(115.864375 91.672563) scale(0.14 -0.14)">
      <use xlink:href="#DejaVuSans-32"/>
      <use xlink:href="#DejaVuSans-30" x="63.623047"/>
      <use xlink:href="#DejaVuSans-30" x="127.246094"/>
      <use xlink:href="#DejaVuSans-4c" x="190.869141"/>
     </g>
    </g>
    <g id="line2d_21">
     <path d="M 76.664375 107.321938 
L 90.664375 107.321938 
L 104.664375 107.321938 
" style="fill: none; stroke: #ff7f0e; stroke-width: 1.5; stroke-linecap: square"/>
    </g>
    <g id="text_14">
     <!-- 2000L -->
     <g transform="translate(115.864375 112.221938) scale(0.14 -0.14)">
      <use xlink:href="#DejaVuSans-32"/>
      <use xlink:href="#DejaVuSans-30" x="63.623047"/>
      <use xlink:href="#DejaVuSans-30" x="127.246094"/>
      <use xlink:href="#DejaVuSans-30" x="190.869141"/>
      <use xlink:href="#DejaVuSans-4c" x="254.492188"/>
     </g>
    </g>
    <g id="line2d_22">
     <path d="M 76.664375 127.871313 
L 90.664375 127.871313 
L 104.664375 127.871313 
" style="fill: none; stroke: #2ca02c; stroke-width: 1.5; stroke-linecap: square"/>
    </g>
    <g id="text_15">
     <!-- 20000L -->
     <g transform="translate(115.864375 132.771313) scale(0.14 -0.14)">
      <use xlink:href="#DejaVuSans-32"/>
      <use xlink:href="#DejaVuSans-30" x="63.623047"/>
      <use xlink:href="#DejaVuSans-30" x="127.246094"/>
      <use xlink:href="#DejaVuSans-30" x="190.869141"/>
      <use xlink:href="#DejaVuSans-30" x="254.492188"/>
      <use xlink:href="#DejaVuSans-4c" x="318.115234"/>
     </g>
    </g>
    <g id="line2d_23">
     <path d="M 76.664375 148.420688 
L 90.664375 148.420688 
L 104.664375 148.420688 
" style="fill: none; stroke: #d62728; stroke-width: 1.5; stroke-linecap: square"/>
    </g>
    <g id="text_16">
     <!-- 200000L -->
     <g transform="translate(115.864375 153.320688) scale(0.14 -0.14)">
      <use xlink:href="#DejaVuSans-32"/>
      <use xlink:href="#DejaVuSans-30" x="63.623047"/>
      <use xlink:href="#DejaVuSans-30" x="127.246094"/>
      <use xlink:href="#DejaVuSans-30" x="190.869141"/>
      <use xlink:href="#DejaVuSans-30" x="254.492188"/>
      <use xlink:href="#DejaVuSans-30" x="318.115234"/>
      <use xlink:href="#DejaVuSans-4c" x="381.738281"/>
     </g>
    </g>
   </g>
  </g>
  <g id="axes_2">
   <g id="patch_8">
    <path d="M 491.024375 306.78125 
L 853.92 306.78125 
L 853.92 47.885375 
L 491.024375 47.885375 
z
" style="fill: #ffffff"/>
   </g>
   <g id="matplotlib.axis_3">
    <g id="xtick_4">
     <g id="line2d_24">
      <g>
       <use xlink:href="#m774f0fca77" x="491.024375" y="306.78125" style="stroke: #000000; stroke-width: 0.8"/>
      </g>
     </g>
     <g id="text_17">
      <!-- 0 -->
      <g transform="translate(486.570625 324.419062) scale(0.14 -0.14)">
       <use xlink:href="#DejaVuSans-30"/>
      </g>
     </g>
    </g>
    <g id="xtick_5">
     <g id="line2d_25">
      <g>
       <use xlink:href="#m774f0fca77" x="633.802982" y="306.78125" style="stroke: #000000; stroke-width: 0.8"/>
      </g>
     </g>
     <g id="text_18">
      <!-- 96 -->
      <g transform="translate(624.895482 324.419062) scale(0.14 -0.14)">
       <use xlink:href="#DejaVuSans-39"/>
       <use xlink:href="#DejaVuSans-36" x="63.623047"/>
      </g>
     </g>
    </g>
    <g id="xtick_6">
     <g id="line2d_26">
      <g>
       <use xlink:href="#m774f0fca77" x="776.581588" y="306.78125" style="stroke: #000000; stroke-width: 0.8"/>
      </g>
     </g>
     <g id="text_19">
      <!-- 192 -->
      <g transform="translate(763.220338 324.419062) scale(0.14 -0.14)">
       <use xlink:href="#DejaVuSans-31"/>
       <use xlink:href="#DejaVuSans-39" x="63.623047"/>
       <use xlink:href="#DejaVuSans-32" x="127.246094"/>
      </g>
     </g>
    </g>
    <g id="text_20">
     <!-- Time (hr) -->
     <g transform="translate(640.344375 341.968437) scale(0.14 -0.14)">
      <use xlink:href="#DejaVuSans-54"/>
      <use xlink:href="#DejaVuSans-69" x="57.958984"/>
      <use xlink:href="#DejaVuSans-6d" x="85.742188"/>
      <use xlink:href="#DejaVuSans-65" x="183.154297"/>
      <use xlink:href="#DejaVuSans-20" x="244.677734"/>
      <use xlink:href="#DejaVuSans-28" x="276.464844"/>
      <use xlink:href="#DejaVuSans-68" x="315.478516"/>
      <use xlink:href="#DejaVuSans-72" x="378.857422"/>
      <use xlink:href="#DejaVuSans-29" x="419.970703"/>
     </g>
    </g>
   </g>
   <g id="matplotlib.axis_4">
    <g id="ytick_6">
     <g id="line2d_27">
      <path d="M 491.024375 263.284688 
L 853.92 263.284688 
" clip-path="url(#p0466359c74)" style="fill: none; stroke: #b0b0b0; stroke-width: 0.8; stroke-linecap: square"/>
     </g>
     <g id="line2d_28">
      <g>
       <use xlink:href="#m3b4c996269" x="491.024375" y="263.284688" style="stroke: #000000; stroke-width: 0.8"/>
      </g>
     </g>
     <g id="text_21">
      <!-- 0.5 -->
      <g transform="translate(461.76 268.603594) scale(0.14 -0.14)">
       <use xlink:href="#DejaVuSans-30"/>
       <use xlink:href="#DejaVuSans-2e" x="63.623047"/>
       <use xlink:href="#DejaVuSans-35" x="95.410156"/>
      </g>
     </g>
    </g>
    <g id="ytick_7">
     <g id="line2d_29">
      <path d="M 491.024375 210.403741 
L 853.92 210.403741 
" clip-path="url(#p0466359c74)" style="fill: none; stroke: #b0b0b0; stroke-width: 0.8; stroke-linecap: square"/>
     </g>
     <g id="line2d_30">
      <g>
       <use xlink:href="#m3b4c996269" x="491.024375" y="210.403741" style="stroke: #000000; stroke-width: 0.8"/>
      </g>
     </g>
     <g id="text_22">
      <!-- 1.0 -->
      <g transform="translate(461.76 215.722647) scale(0.14 -0.14)">
       <use xlink:href="#DejaVuSans-31"/>
       <use xlink:href="#DejaVuSans-2e" x="63.623047"/>
       <use xlink:href="#DejaVuSans-30" x="95.410156"/>
      </g>
     </g>
    </g>
    <g id="ytick_8">
     <g id="line2d_31">
      <path d="M 491.024375 157.522794 
L 853.92 157.522794 
" clip-path="url(#p0466359c74)" style="fill: none; stroke: #b0b0b0; stroke-width: 0.8; stroke-linecap: square"/>
     </g>
     <g id="line2d_32">
      <g>
       <use xlink:href="#m3b4c996269" x="491.024375" y="157.522794" style="stroke: #000000; stroke-width: 0.8"/>
      </g>
     </g>
     <g id="text_23">
      <!-- 1.5 -->
      <g transform="translate(461.76 162.8417) scale(0.14 -0.14)">
       <use xlink:href="#DejaVuSans-31"/>
       <use xlink:href="#DejaVuSans-2e" x="63.623047"/>
       <use xlink:href="#DejaVuSans-35" x="95.410156"/>
      </g>
     </g>
    </g>
    <g id="ytick_9">
     <g id="line2d_33">
      <path d="M 491.024375 104.641847 
L 853.92 104.641847 
" clip-path="url(#p0466359c74)" style="fill: none; stroke: #b0b0b0; stroke-width: 0.8; stroke-linecap: square"/>
     </g>
     <g id="line2d_34">
      <g>
       <use xlink:href="#m3b4c996269" x="491.024375" y="104.641847" style="stroke: #000000; stroke-width: 0.8"/>
      </g>
     </g>
     <g id="text_24">
      <!-- 2.0 -->
      <g transform="translate(461.76 109.960753) scale(0.14 -0.14)">
       <use xlink:href="#DejaVuSans-32"/>
       <use xlink:href="#DejaVuSans-2e" x="63.623047"/>
       <use xlink:href="#DejaVuSans-30" x="95.410156"/>
      </g>
     </g>
    </g>
    <g id="ytick_10">
     <g id="line2d_35">
      <path d="M 491.024375 51.7609 
L 853.92 51.7609 
" clip-path="url(#p0466359c74)" style="fill: none; stroke: #b0b0b0; stroke-width: 0.8; stroke-linecap: square"/>
     </g>
     <g id="line2d_36">
      <g>
       <use xlink:href="#m3b4c996269" x="491.024375" y="51.7609" style="stroke: #000000; stroke-width: 0.8"/>
      </g>
     </g>
     <g id="text_25">
      <!-- 2.5 -->
      <g transform="translate(461.76 57.079806) scale(0.14 -0.14)">
       <use xlink:href="#DejaVuSans-32"/>
       <use xlink:href="#DejaVuSans-2e" x="63.623047"/>
       <use xlink:href="#DejaVuSans-35" x="95.410156"/>
      </g>
     </g>
    </g>
    <g id="text_26">
     <!-- Viable Cell Density ($10^6$ cells / mL) -->
     <g transform="translate(454.82 298.643313) rotate(-90) scale(0.14 -0.14)">
      <use xlink:href="#DejaVuSans-56" transform="translate(0 0.765625)"/>
      <use xlink:href="#DejaVuSans-69" transform="translate(68.408203 0.765625)"/>
      <use xlink:href="#DejaVuSans-61" transform="translate(96.191406 0.765625)"/>
      <use xlink:href="#DejaVuSans-62" transform="translate(157.470703 0.765625)"/>
      <use xlink:href="#DejaVuSans-6c" transform="translate(220.947266 0.765625)"/>
      <use xlink:href="#DejaVuSans-65" transform="translate(248.730469 0.765625)"/>
      <use xlink:href="#DejaVuSans-20" transform="translate(310.253906 0.765625)"/>
      <use xlink:href="#DejaVuSans-43" transform="translate(342.041016 0.765625)"/>
      <use xlink:href="#DejaVuSans-65" transform="translate(411.865234 0.765625)"/>
      <use xlink:href="#DejaVuSans-6c" transform="translate(473.388672 0.765625)"/>
      <use xlink:href="#DejaVuSans-6c" transform="translate(501.171875 0.765625)"/>
      <use xlink:href="#DejaVuSans-20" transform="translate(528.955078 0.765625)"/>
      <use xlink:href="#DejaVuSans-44" transform="translate(560.742188 0.765625)"/>
      <use xlink:href="#DejaVuSans-65" transform="translate(637.744141 0.765625)"/>
      <use xlink:href="#DejaVuSans-6e" transform="translate(699.267578 0.765625)"/>
      <use xlink:href="#DejaVuSans-73" transform="translate(762.646484 0.765625)"/>
      <use xlink:href="#DejaVuSans-69" transform="translate(814.746094 0.765625)"/>
      <use xlink:href="#DejaVuSans-74" transform="translate(842.529297 0.765625)"/>
      <use xlink:href="#DejaVuSans-79" transform="translate(881.738281 0.765625)"/>
      <use xlink:href="#DejaVuSans-20" transform="translate(940.917969 0.765625)"/>
      <use xlink:href="#DejaVuSans-28" transform="translate(972.705078 0.765625)"/>
      <use xlink:href="#DejaVuSans-31" transform="translate(1011.71875 0.765625)"/>
      <use xlink:href="#DejaVuSans-30" transform="translate(1075.341797 0.765625)"/>
      <use xlink:href="#DejaVuSans-36" transform="translate(1139.921875 39.046875) scale(0.7)"/>
      <use xlink:href="#DejaVuSans-20" transform="translate(1187.192383 0.765625)"/>
      <use xlink:href="#DejaVuSans-63" transform="translate(1218.979492 0.765625)"/>
      <use xlink:href="#DejaVuSans-65" transform="translate(1273.959961 0.765625)"/>
      <use xlink:href="#DejaVuSans-6c" transform="translate(1335.483398 0.765625)"/>
      <use xlink:href="#DejaVuSans-6c" transform="translate(1363.266602 0.765625)"/>
      <use xlink:href="#DejaVuSans-73" transform="translate(1391.049805 0.765625)"/>
      <use xlink:href="#DejaVuSans-20" transform="translate(1443.149414 0.765625)"/>
      <use xlink:href="#DejaVuSans-2f" transform="translate(1474.936523 0.765625)"/>
      <use xlink:href="#DejaVuSans-20" transform="translate(1508.62793 0.765625)"/>
      <use xlink:href="#DejaVuSans-6d" transform="translate(1540.415039 0.765625)"/>
      <use xlink:href="#DejaVuSans-4c" transform="translate(1637.827148 0.765625)"/>
      <use xlink:href="#DejaVuSans-29" transform="translate(1693.540039 0.765625)"/>
     </g>
    </g>
   </g>
   <g id="line2d_37">
    <path d="M 491.024375 295.013256 
L 498.042458 292.025726 
L 504.782081 288.949875 
L 512.581381 285.13479 
L 519.983853 281.258729 
L 527.524558 277.054863 
L 535.065262 272.594871 
L 542.605967 267.882191 
L 552.176244 261.545776 
L 561.746521 254.826387 
L 571.316798 247.744414 
L 580.080623 240.962705 
L 588.844448 233.92112 
L 597.608273 226.645695 
L 606.92394 218.688033 
L 620.89744 206.399826 
L 636.643749 192.199716 
L 676.389805 156.034705 
L 688.102542 145.637323 
L 698.807336 136.357125 
L 708.504187 128.179264 
L 718.201037 120.255611 
L 728.046295 112.504453 
L 738.03996 104.971452 
L 748.132029 97.737961 
L 757.981767 91.069452 
L 767.346842 85.114468 
L 776.352929 79.768991 
L 784.64104 75.207439 
L 792.227552 71.362181 
L 798.410865 68.488372 
L 804.993191 65.722922 
L 810.732248 63.602905 
L 815.603592 62.06269 
L 819.805087 60.971519 
L 823.739649 60.200595 
L 827.270655 59.771342 
L 829.983833 59.653369 
L 832.453272 59.741096 
L 835.056711 60.070691 
L 837.541222 60.641777 
L 839.874685 61.419798 
L 842.444696 62.537526 
L 845.068005 63.918543 
L 848.610557 66.055051 
L 853.92 69.554676 
L 853.92 69.554676 
" clip-path="url(#p0466359c74)" style="fill: none; stroke-dasharray: 1.5,2.475; stroke-dashoffset: 0; stroke: #000000; stroke-width: 1.5"/>
   </g>
   <g id="line2d_38">
    <path d="M 491.024375 295.013256 
L 505.941821 290.228429 
L 525.63464 283.674349 
L 569.34721 269.00646 
L 588.952548 262.751637 
L 602.022774 258.799591 
L 614.584697 255.20547 
L 626.638318 251.971192 
L 638.69194 248.96792 
L 650.713863 246.219365 
L 662.704088 243.736351 
L 674.694313 241.520305 
L 687.191898 239.500506 
L 700.196842 237.715451 
L 713.201787 236.252033 
L 727.26869 235.025294 
L 742.397553 234.107149 
L 757.526416 233.587514 
L 773.172091 233.44668 
L 789.334578 233.696927 
L 805.497065 234.318733 
L 820.758113 235.218436 
L 835.117723 236.318247 
L 849.477333 237.642219 
L 853.92 238.09416 
L 853.92 238.09416 
" clip-path="url(#p0466359c74)" style="fill: none; stroke: #1f77b4; stroke-width: 1.5; stroke-linecap: square"/>
   </g>
   <g id="line2d_39">
    <path d="M 491.024375 295.013256 
L 503.339493 290.52438 
L 515.296839 285.867538 
L 527.518583 280.839017 
L 539.740326 275.578445 
L 554.894809 268.79932 
L 575.256222 259.395529 
L 615.075898 240.868334 
L 628.860922 234.667405 
L 642.645947 228.688105 
L 653.547131 224.156967 
L 664.448315 219.829651 
L 675.349498 215.730089 
L 686.911501 211.653909 
L 698.473504 207.877787 
L 710.035507 204.418165 
L 722.392728 201.084444 
L 734.749948 198.136704 
L 747.107169 195.580747 
L 760.189199 193.30376 
L 773.27123 191.465972 
L 786.353261 190.06229 
L 797.414795 189.208851 
L 808.47633 188.655881 
L 819.537864 188.398924 
L 828.124891 188.401409 
L 836.711917 188.579735 
L 848.54733 189.115505 
L 853.92 189.471535 
L 853.92 189.471535 
" clip-path="url(#p0466359c74)" style="fill: none; stroke: #ff7f0e; stroke-width: 1.5; stroke-linecap: square"/>
   </g>
   <g id="line2d_40">
    <path d="M 491.024375 295.013256 
L 499.553141 291.780939 
L 507.421994 288.623292 
L 518.642442 283.843339 
L 529.552672 278.903059 
L 541.710348 273.089783 
L 555.712126 266.044494 
L 570.635954 258.200454 
L 585.623249 250.071824 
L 644.879324 217.583313 
L 656.870054 211.338808 
L 668.860784 205.324058 
L 680.851514 199.582517 
L 692.288811 194.395773 
L 703.726109 189.521146 
L 715.163406 184.982715 
L 726.920919 180.688247 
L 738.678432 176.786346 
L 750.435945 173.289276 
L 762.210201 170.20146 
L 773.984456 167.533705 
L 785.758712 165.289505 
L 794.816467 163.853012 
L 803.874222 162.670287 
L 812.931977 161.74381 
L 823.056595 161.016949 
L 829.806341 160.718404 
L 838.709425 160.562246 
L 847.001742 160.675367 
L 853.92 160.978279 
L 853.92 160.978279 
" clip-path="url(#p0466359c74)" style="fill: none; stroke: #2ca02c; stroke-width: 1.5; stroke-linecap: square"/>
   </g>
   <g id="line2d_41">
    <path d="M 491.024375 295.013256 
L 498.85242 291.796598 
L 506.188908 288.567261 
L 512.73473 285.511144 
L 520.411384 281.718781 
L 528.095346 277.700885 
L 535.779309 273.465879 
L 543.463272 269.020306 
L 553.063697 263.182718 
L 562.664122 257.049036 
L 572.264548 250.642919 
L 581.325225 244.371711 
L 594.916241 234.612937 
L 609.347828 223.886031 
L 629.150324 208.786341 
L 662.74398 183.074177 
L 679.912108 170.338556 
L 690.361505 162.840735 
L 700.810901 155.584817 
L 711.511849 148.443372 
L 722.212797 141.629599 
L 732.913745 135.174805 
L 743.187903 129.340877 
L 753.462062 123.885062 
L 763.73622 118.82738 
L 771.348747 115.348252 
L 778.961275 112.106891 
L 786.573802 109.112939 
L 794.878944 106.142843 
L 803.184087 103.502319 
L 809.854709 101.64047 
L 816.525332 100.034532 
L 821.536154 99.01743 
L 826.546977 98.186696 
L 831.720161 97.558524 
L 836.498883 97.229767 
L 840.883143 97.193471 
L 844.438142 97.397309 
L 847.951433 97.853406 
L 850.750589 98.433934 
L 853.625884 99.261532 
L 853.92 99.360333 
L 853.92 99.360333 
" clip-path="url(#p0466359c74)" style="fill: none; stroke: #d62728; stroke-width: 1.5; stroke-linecap: square"/>
   </g>
   <g id="patch_9">
    <path d="M 491.024375 306.78125 
L 491.024375 47.885375 
" style="fill: none; stroke: #000000; stroke-width: 0.8; stroke-linejoin: miter; stroke-linecap: square"/>
   </g>
   <g id="patch_10">
    <path d="M 853.92 306.78125 
L 853.92 47.885375 
" style="fill: none; stroke: #000000; stroke-width: 0.8; stroke-linejoin: miter; stroke-linecap: square"/>
   </g>
   <g id="patch_11">
    <path d="M 491.024375 306.78125 
L 853.92 306.78125 
" style="fill: none; stroke: #000000; stroke-width: 0.8; stroke-linejoin: miter; stroke-linecap: square"/>
   </g>
   <g id="patch_12">
    <path d="M 491.024375 47.885375 
L 853.92 47.885375 
" style="fill: none; stroke: #000000; stroke-width: 0.8; stroke-linejoin: miter; stroke-linecap: square"/>
   </g>
   <g id="text_27">
    <!-- Walls 2017 bubble damage -->
    <g transform="translate(557.989375 27.885375) scale(0.168 -0.168)">
     <defs>
      <path id="DejaVuSans-57" d="M 213 4666 
L 850 4666 
L 1831 722 
L 2809 4666 
L 3519 4666 
L 4500 722 
L 5478 4666 
L 6119 4666 
L 4947 0 
L 4153 0 
L 3169 4050 
L 2175 0 
L 1381 0 
L 213 4666 
z
" transform="scale(0.015625)"/>
      <path id="DejaVuSans-37" d="M 525 4666 
L 3525 4666 
L 3525 4397 
L 1831 0 
L 1172 0 
L 2766 4134 
L 525 4134 
L 525 4666 
z
" transform="scale(0.015625)"/>
      <path id="DejaVuSans-75" d="M 544 1381 
L 544 3500 
L 1119 3500 
L 1119 1403 
Q 1119 906 1312 657 
Q 1506 409 1894 409 
Q 2359 409 2629 706 
Q 2900 1003 2900 1516 
L 2900 3500 
L 3475 3500 
L 3475 0 
L 2900 0 
L 2900 538 
Q 2691 219 2414 64 
Q 2138 -91 1772 -91 
Q 1169 -91 856 284 
Q 544 659 544 1381 
z
M 1991 3584 
L 1991 3584 
z
" transform="scale(0.015625)"/>
     </defs>
     <use xlink:href="#DejaVuSans-57"/>
     <use xlink:href="#DejaVuSans-61" x="92.501953"/>
     <use xlink:href="#DejaVuSans-6c" x="153.78125"/>
     <use xlink:href="#DejaVuSans-6c" x="181.564453"/>
     <use xlink:href="#DejaVuSans-73" x="209.347656"/>
     <use xlink:href="#DejaVuSans-20" x="261.447266"/>
     <use xlink:href="#DejaVuSans-32" x="293.234375"/>
     <use xlink:href="#DejaVuSans-30" x="356.857422"/>
     <use xlink:href="#DejaVuSans-31" x="420.480469"/>
     <use xlink:href="#DejaVuSans-37" x="484.103516"/>
     <use xlink:href="#DejaVuSans-20" x="547.726562"/>
     <use xlink:href="#DejaVuSans-62" x="579.513672"/>
     <use xlink:href="#DejaVuSans-75" x="642.990234"/>
     <use xlink:href="#DejaVuSans-62" x="706.369141"/>
     <use xlink:href="#DejaVuSans-62" x="769.845703"/>
     <use xlink:href="#DejaVuSans-6c" x="833.322266"/>
     <use xlink:href="#DejaVuSans-65" x="861.105469"/>
     <use xlink:href="#DejaVuSans-20" x="922.628906"/>
     <use xlink:href="#DejaVuSans-64" x="954.416016"/>
     <use xlink:href="#DejaVuSans-61" x="1017.892578"/>
     <use xlink:href="#DejaVuSans-6d" x="1079.171875"/>
     <use xlink:href="#DejaVuSans-61" x="1176.583984"/>
     <use xlink:href="#DejaVuSans-67" x="1237.863281"/>
     <use xlink:href="#DejaVuSans-65" x="1301.339844"/>
    </g>
   </g>
   <g id="legend_2">
    <g id="patch_13">
     <path d="M 500.824375 161.83225 
L 624.698125 161.83225 
Q 627.498125 161.83225 627.498125 159.03225 
L 627.498125 57.685375 
Q 627.498125 54.885375 624.698125 54.885375 
L 500.824375 54.885375 
Q 498.024375 54.885375 498.024375 57.685375 
L 498.024375 159.03225 
Q 498.024375 161.83225 500.824375 161.83225 
z
" style="fill: #ffffff; opacity: 0.8; stroke: #cccccc; stroke-linejoin: miter"/>
    </g>
    <g id="line2d_42">
     <path d="M 503.624375 66.223188 
L 517.624375 66.223188 
L 531.624375 66.223188 
" style="fill: none; stroke-dasharray: 1.5,2.475; stroke-dashoffset: 0; stroke: #000000; stroke-width: 1.5"/>
    </g>
    <g id="text_28">
     <!-- no damage -->
     <g transform="translate(542.824375 71.123188) scale(0.14 -0.14)">
      <use xlink:href="#DejaVuSans-6e"/>
      <use xlink:href="#DejaVuSans-6f" x="63.378906"/>
      <use xlink:href="#DejaVuSans-20" x="124.560547"/>
      <use xlink:href="#DejaVuSans-64" x="156.347656"/>
      <use xlink:href="#DejaVuSans-61" x="219.824219"/>
      <use xlink:href="#DejaVuSans-6d" x="281.103516"/>
      <use xlink:href="#DejaVuSans-61" x="378.515625"/>
      <use xlink:href="#DejaVuSans-67" x="439.794922"/>
      <use xlink:href="#DejaVuSans-65" x="503.271484"/>
     </g>
    </g>
    <g id="line2d_43">
     <path d="M 503.624375 86.772563 
L 517.624375 86.772563 
L 531.624375 86.772563 
" style="fill: none; stroke: #1f77b4; stroke-width: 1.5; stroke-linecap: square"/>
    </g>
    <g id="text_29">
     <!-- 200L -->
     <g transform="translate(542.824375 91.672563) scale(0.14 -0.14)">
      <use xlink:href="#DejaVuSans-32"/>
      <use xlink:href="#DejaVuSans-30" x="63.623047"/>
      <use xlink:href="#DejaVuSans-30" x="127.246094"/>
      <use xlink:href="#DejaVuSans-4c" x="190.869141"/>
     </g>
    </g>
    <g id="line2d_44">
     <path d="M 503.624375 107.321938 
L 517.624375 107.321938 
L 531.624375 107.321938 
" style="fill: none; stroke: #ff7f0e; stroke-width: 1.5; stroke-linecap: square"/>
    </g>
    <g id="text_30">
     <!-- 2000L -->
     <g transform="translate(542.824375 112.221938) scale(0.14 -0.14)">
      <use xlink:href="#DejaVuSans-32"/>
      <use xlink:href="#DejaVuSans-30" x="63.623047"/>
      <use xlink:href="#DejaVuSans-30" x="127.246094"/>
      <use xlink:href="#DejaVuSans-30" x="190.869141"/>
      <use xlink:href="#DejaVuSans-4c" x="254.492188"/>
     </g>
    </g>
    <g id="line2d_45">
     <path d="M 503.624375 127.871313 
L 517.624375 127.871313 
L 531.624375 127.871313 
" style="fill: none; stroke: #2ca02c; stroke-width: 1.5; stroke-linecap: square"/>
    </g>
    <g id="text_31">
     <!-- 20000L -->
     <g transform="translate(542.824375 132.771313) scale(0.14 -0.14)">
      <use xlink:href="#DejaVuSans-32"/>
      <use xlink:href="#DejaVuSans-30" x="63.623047"/>
      <use xlink:href="#DejaVuSans-30" x="127.246094"/>
      <use xlink:href="#DejaVuSans-30" x="190.869141"/>
      <use xlink:href="#DejaVuSans-30" x="254.492188"/>
      <use xlink:href="#DejaVuSans-4c" x="318.115234"/>
     </g>
    </g>
    <g id="line2d_46">
     <path d="M 503.624375 148.420688 
L 517.624375 148.420688 
L 531.624375 148.420688 
" style="fill: none; stroke: #d62728; stroke-width: 1.5; stroke-linecap: square"/>
    </g>
    <g id="text_32">
     <!-- 200000L -->
     <g transform="translate(542.824375 153.320688) scale(0.14 -0.14)">
      <use xlink:href="#DejaVuSans-32"/>
      <use xlink:href="#DejaVuSans-30" x="63.623047"/>
      <use xlink:href="#DejaVuSans-30" x="127.246094"/>
      <use xlink:href="#DejaVuSans-30" x="190.869141"/>
      <use xlink:href="#DejaVuSans-30" x="254.492188"/>
      <use xlink:href="#DejaVuSans-30" x="318.115234"/>
      <use xlink:href="#DejaVuSans-4c" x="381.738281"/>
     </g>
    </g>
   </g>
  </g>
  <g id="axes_3">
   <g id="patch_14">
    <path d="M 917.984375 306.78125 
L 1280.88 306.78125 
L 1280.88 47.885375 
L 917.984375 47.885375 
z
" style="fill: #ffffff"/>
   </g>
   <g id="matplotlib.axis_5">
    <g id="xtick_7">
     <g id="line2d_47">
      <g>
       <use xlink:href="#m774f0fca77" x="917.984375" y="306.78125" style="stroke: #000000; stroke-width: 0.8"/>
      </g>
     </g>
     <g id="text_33">
      <!-- 0 -->
      <g transform="translate(913.530625 324.419062) scale(0.14 -0.14)">
       <use xlink:href="#DejaVuSans-30"/>
      </g>
     </g>
    </g>
    <g id="xtick_8">
     <g id="line2d_48">
      <g>
       <use xlink:href="#m774f0fca77" x="1060.762982" y="306.78125" style="stroke: #000000; stroke-width: 0.8"/>
      </g>
     </g>
     <g id="text_34">
      <!-- 96 -->
      <g transform="translate(1051.855482 324.419062) scale(0.14 -0.14)">
       <use xlink:href="#DejaVuSans-39"/>
       <use xlink:href="#DejaVuSans-36" x="63.623047"/>
      </g>
     </g>
    </g>
    <g id="xtick_9">
     <g id="line2d_49">
      <g>
       <use xlink:href="#m774f0fca77" x="1203.541588" y="306.78125" style="stroke: #000000; stroke-width: 0.8"/>
      </g>
     </g>
     <g id="text_35">
      <!-- 192 -->
      <g transform="translate(1190.180338 324.419062) scale(0.14 -0.14)">
       <use xlink:href="#DejaVuSans-31"/>
       <use xlink:href="#DejaVuSans-39" x="63.623047"/>
       <use xlink:href="#DejaVuSans-32" x="127.246094"/>
      </g>
     </g>
    </g>
    <g id="text_36">
     <!-- Time (hr) -->
     <g transform="translate(1067.304375 341.968437) scale(0.14 -0.14)">
      <use xlink:href="#DejaVuSans-54"/>
      <use xlink:href="#DejaVuSans-69" x="57.958984"/>
      <use xlink:href="#DejaVuSans-6d" x="85.742188"/>
      <use xlink:href="#DejaVuSans-65" x="183.154297"/>
      <use xlink:href="#DejaVuSans-20" x="244.677734"/>
      <use xlink:href="#DejaVuSans-28" x="276.464844"/>
      <use xlink:href="#DejaVuSans-68" x="315.478516"/>
      <use xlink:href="#DejaVuSans-72" x="378.857422"/>
      <use xlink:href="#DejaVuSans-29" x="419.970703"/>
     </g>
    </g>
   </g>
   <g id="matplotlib.axis_6">
    <g id="ytick_11">
     <g id="line2d_50">
      <path d="M 917.984375 258.668452 
L 1280.88 258.668452 
" clip-path="url(#pf9eb4a2052)" style="fill: none; stroke: #b0b0b0; stroke-width: 0.8; stroke-linecap: square"/>
     </g>
     <g id="line2d_51">
      <g>
       <use xlink:href="#m3b4c996269" x="917.984375" y="258.668452" style="stroke: #000000; stroke-width: 0.8"/>
      </g>
     </g>
     <g id="text_37">
      <!-- 0.5 -->
      <g transform="translate(888.72 263.987359) scale(0.14 -0.14)">
       <use xlink:href="#DejaVuSans-30"/>
       <use xlink:href="#DejaVuSans-2e" x="63.623047"/>
       <use xlink:href="#DejaVuSans-35" x="95.410156"/>
      </g>
     </g>
    </g>
    <g id="ytick_12">
     <g id="line2d_52">
      <path d="M 917.984375 206.986294 
L 1280.88 206.986294 
" clip-path="url(#pf9eb4a2052)" style="fill: none; stroke: #b0b0b0; stroke-width: 0.8; stroke-linecap: square"/>
     </g>
     <g id="line2d_53">
      <g>
       <use xlink:href="#m3b4c996269" x="917.984375" y="206.986294" style="stroke: #000000; stroke-width: 0.8"/>
      </g>
     </g>
     <g id="text_38">
      <!-- 1.0 -->
      <g transform="translate(888.72 212.3052) scale(0.14 -0.14)">
       <use xlink:href="#DejaVuSans-31"/>
       <use xlink:href="#DejaVuSans-2e" x="63.623047"/>
       <use xlink:href="#DejaVuSans-30" x="95.410156"/>
      </g>
     </g>
    </g>
    <g id="ytick_13">
     <g id="line2d_54">
      <path d="M 917.984375 155.304136 
L 1280.88 155.304136 
" clip-path="url(#pf9eb4a2052)" style="fill: none; stroke: #b0b0b0; stroke-width: 0.8; stroke-linecap: square"/>
     </g>
     <g id="line2d_55">
      <g>
       <use xlink:href="#m3b4c996269" x="917.984375" y="155.304136" style="stroke: #000000; stroke-width: 0.8"/>
      </g>
     </g>
     <g id="text_39">
      <!-- 1.5 -->
      <g transform="translate(888.72 160.623042) scale(0.14 -0.14)">
       <use xlink:href="#DejaVuSans-31"/>
       <use xlink:href="#DejaVuSans-2e" x="63.623047"/>
       <use xlink:href="#DejaVuSans-35" x="95.410156"/>
      </g>
     </g>
    </g>
    <g id="ytick_14">
     <g id="line2d_56">
      <path d="M 917.984375 103.621977 
L 1280.88 103.621977 
" clip-path="url(#pf9eb4a2052)" style="fill: none; stroke: #b0b0b0; stroke-width: 0.8; stroke-linecap: square"/>
     </g>
     <g id="line2d_57">
      <g>
       <use xlink:href="#m3b4c996269" x="917.984375" y="103.621977" style="stroke: #000000; stroke-width: 0.8"/>
      </g>
     </g>
     <g id="text_40">
      <!-- 2.0 -->
      <g transform="translate(888.72 108.940883) scale(0.14 -0.14)">
       <use xlink:href="#DejaVuSans-32"/>
       <use xlink:href="#DejaVuSans-2e" x="63.623047"/>
       <use xlink:href="#DejaVuSans-30" x="95.410156"/>
      </g>
     </g>
    </g>
    <g id="ytick_15">
     <g id="line2d_58">
      <path d="M 917.984375 51.939819 
L 1280.88 51.939819 
" clip-path="url(#pf9eb4a2052)" style="fill: none; stroke: #b0b0b0; stroke-width: 0.8; stroke-linecap: square"/>
     </g>
     <g id="line2d_59">
      <g>
       <use xlink:href="#m3b4c996269" x="917.984375" y="51.939819" style="stroke: #000000; stroke-width: 0.8"/>
      </g>
     </g>
     <g id="text_41">
      <!-- 2.5 -->
      <g transform="translate(888.72 57.258725) scale(0.14 -0.14)">
       <use xlink:href="#DejaVuSans-32"/>
       <use xlink:href="#DejaVuSans-2e" x="63.623047"/>
       <use xlink:href="#DejaVuSans-35" x="95.410156"/>
      </g>
     </g>
    </g>
    <g id="text_42">
     <!-- Viable Cell Density ($10^6$ cells / mL) -->
     <g transform="translate(881.78 298.643313) rotate(-90) scale(0.14 -0.14)">
      <use xlink:href="#DejaVuSans-56" transform="translate(0 0.765625)"/>
      <use xlink:href="#DejaVuSans-69" transform="translate(68.408203 0.765625)"/>
      <use xlink:href="#DejaVuSans-61" transform="translate(96.191406 0.765625)"/>
      <use xlink:href="#DejaVuSans-62" transform="translate(157.470703 0.765625)"/>
      <use xlink:href="#DejaVuSans-6c" transform="translate(220.947266 0.765625)"/>
      <use xlink:href="#DejaVuSans-65" transform="translate(248.730469 0.765625)"/>
      <use xlink:href="#DejaVuSans-20" transform="translate(310.253906 0.765625)"/>
      <use xlink:href="#DejaVuSans-43" transform="translate(342.041016 0.765625)"/>
      <use xlink:href="#DejaVuSans-65" transform="translate(411.865234 0.765625)"/>
      <use xlink:href="#DejaVuSans-6c" transform="translate(473.388672 0.765625)"/>
      <use xlink:href="#DejaVuSans-6c" transform="translate(501.171875 0.765625)"/>
      <use xlink:href="#DejaVuSans-20" transform="translate(528.955078 0.765625)"/>
      <use xlink:href="#DejaVuSans-44" transform="translate(560.742188 0.765625)"/>
      <use xlink:href="#DejaVuSans-65" transform="translate(637.744141 0.765625)"/>
      <use xlink:href="#DejaVuSans-6e" transform="translate(699.267578 0.765625)"/>
      <use xlink:href="#DejaVuSans-73" transform="translate(762.646484 0.765625)"/>
      <use xlink:href="#DejaVuSans-69" transform="translate(814.746094 0.765625)"/>
      <use xlink:href="#DejaVuSans-74" transform="translate(842.529297 0.765625)"/>
      <use xlink:href="#DejaVuSans-79" transform="translate(881.738281 0.765625)"/>
      <use xlink:href="#DejaVuSans-20" transform="translate(940.917969 0.765625)"/>
      <use xlink:href="#DejaVuSans-28" transform="translate(972.705078 0.765625)"/>
      <use xlink:href="#DejaVuSans-31" transform="translate(1011.71875 0.765625)"/>
      <use xlink:href="#DejaVuSans-30" transform="translate(1075.341797 0.765625)"/>
      <use xlink:href="#DejaVuSans-36" transform="translate(1139.921875 39.046875) scale(0.7)"/>
      <use xlink:href="#DejaVuSans-20" transform="translate(1187.192383 0.765625)"/>
      <use xlink:href="#DejaVuSans-63" transform="translate(1218.979492 0.765625)"/>
      <use xlink:href="#DejaVuSans-65" transform="translate(1273.959961 0.765625)"/>
      <use xlink:href="#DejaVuSans-6c" transform="translate(1335.483398 0.765625)"/>
      <use xlink:href="#DejaVuSans-6c" transform="translate(1363.266602 0.765625)"/>
      <use xlink:href="#DejaVuSans-73" transform="translate(1391.049805 0.765625)"/>
      <use xlink:href="#DejaVuSans-20" transform="translate(1443.149414 0.765625)"/>
      <use xlink:href="#DejaVuSans-2f" transform="translate(1474.936523 0.765625)"/>
      <use xlink:href="#DejaVuSans-20" transform="translate(1508.62793 0.765625)"/>
      <use xlink:href="#DejaVuSans-6d" transform="translate(1540.415039 0.765625)"/>
      <use xlink:href="#DejaVuSans-4c" transform="translate(1637.827148 0.765625)"/>
      <use xlink:href="#DejaVuSans-29" transform="translate(1693.540039 0.765625)"/>
     </g>
    </g>
   </g>
   <g id="line2d_60">
    <path d="M 917.984375 289.677747 
L 925.002458 286.757943 
L 931.742081 283.751821 
L 939.541381 280.023223 
L 946.943853 276.23503 
L 954.484558 272.126464 
L 962.025262 267.767578 
L 969.565967 263.161733 
L 979.136244 256.968961 
L 988.706521 250.401898 
L 998.276798 243.48047 
L 1007.040623 236.8525 
L 1015.804448 229.970544 
L 1024.568273 222.860051 
L 1033.88394 215.082785 
L 1047.85744 203.073146 
L 1063.603749 189.194947 
L 1103.349805 153.849781 
L 1115.062542 143.688103 
L 1125.767336 134.618283 
L 1135.464187 126.625811 
L 1145.161037 118.881784 
L 1155.006295 111.306341 
L 1164.99996 103.94411 
L 1175.092029 96.8746 
L 1184.941767 90.357263 
L 1194.306842 84.537276 
L 1203.312929 79.312978 
L 1211.60104 74.854834 
L 1219.187552 71.096747 
L 1225.370865 68.288086 
L 1231.953191 65.585328 
L 1237.692248 63.513371 
L 1242.563592 62.008072 
L 1246.765087 60.941637 
L 1250.699649 60.18819 
L 1254.230655 59.768668 
L 1257.437721 59.654929 
L 1259.90716 59.780892 
L 1262.438621 60.138099 
L 1264.913742 60.737075 
L 1267.218874 61.526677 
L 1269.896781 62.708967 
L 1272.932271 64.330957 
L 1276.752719 66.651103 
L 1280.88 69.330217 
L 1280.88 69.330217 
" clip-path="url(#pf9eb4a2052)" style="fill: none; stroke-dasharray: 1.5,2.475; stroke-dashoffset: 0; stroke: #000000; stroke-width: 1.5"/>
   </g>
   <g id="line2d_61">
    <path d="M 917.984375 289.677747 
L 929.079418 287.637552 
L 939.968462 285.848758 
L 949.178303 284.506946 
L 959.781608 283.158586 
L 972.178488 281.846663 
L 982.83451 280.941106 
L 993.490531 280.232693 
L 1003.729879 279.728534 
L 1018.46389 279.286063 
L 1033.357242 279.147795 
L 1048.569275 279.290023 
L 1064.062995 279.689578 
L 1080.120089 280.332472 
L 1096.490786 281.184487 
L 1119.15466 282.615736 
L 1143.114225 284.350075 
L 1181.731383 287.392629 
L 1242.786374 292.230652 
L 1280.88 295.013256 
L 1280.88 295.013256 
" clip-path="url(#pf9eb4a2052)" style="fill: none; stroke: #1f77b4; stroke-width: 1.5; stroke-linecap: square"/>
   </g>
   <g id="line2d_62">
    <path d="M 917.984375 289.677747 
L 924.954663 287.767143 
L 954.512754 279.769442 
L 973.577141 274.879997 
L 986.641697 271.727464 
L 999.706253 268.772552 
L 1012.525565 266.089874 
L 1025.099633 263.685637 
L 1037.6737 261.519812 
L 1050.218554 259.60562 
L 1062.734195 257.946298 
L 1075.249836 256.538381 
L 1088.580632 255.312952 
L 1102.726583 254.315198 
L 1116.872534 253.618117 
L 1131.813523 253.192458 
L 1147.549549 253.06753 
L 1163.285575 253.248796 
L 1177.825587 253.664466 
L 1191.169586 254.235923 
L 1204.513585 254.971225 
L 1218.35393 255.888561 
L 1239.858964 257.583233 
L 1261.751311 259.585284 
L 1280.88 261.51374 
L 1280.88 261.51374 
" clip-path="url(#pf9eb4a2052)" style="fill: none; stroke: #ff7f0e; stroke-width: 1.5; stroke-linecap: square"/>
   </g>
   <g id="line2d_63">
    <path d="M 917.984375 289.677747 
L 933.018183 284.925557 
L 950.250057 279.266305 
L 1003.585654 261.541862 
L 1021.577232 255.900614 
L 1034.148568 252.162911 
L 1046.719904 248.629052 
L 1058.947215 245.412994 
L 1070.8305 242.516182 
L 1082.713786 239.860327 
L 1094.797613 237.418768 
L 1107.081982 235.213257 
L 1119.36635 233.291766 
L 1132.349564 231.571497 
L 1146.031623 230.10183 
L 1159.713682 228.977995 
L 1166.554711 228.542737 
L 1175.391309 228.102264 
L 1184.227907 227.795545 
L 1193.064505 227.618434 
L 1201.901102 227.566475 
L 1210.7377 227.634966 
L 1226.822806 228.052805 
L 1241.319822 228.732469 
L 1255.816838 229.676552 
L 1270.723435 230.900473 
L 1280.88 231.870264 
L 1280.88 231.870264 
" clip-path="url(#pf9eb4a2052)" style="fill: none; stroke: #2ca02c; stroke-width: 1.5; stroke-linecap: square"/>
   </g>
   <g id="line2d_64">
    <path d="M 917.984375 289.677747 
L 926.618021 286.366061 
L 934.553454 283.119025 
L 942.643894 279.613282 
L 951.996743 275.323244 
L 959.915189 271.500957 
L 971.792857 265.461442 
L 981.557335 260.243898 
L 991.321812 254.823372 
L 1005.865811 246.430407 
L 1020.204376 237.866446 
L 1040.692873 225.33303 
L 1068.790859 208.098486 
L 1081.269011 200.614037 
L 1093.747164 193.327911 
L 1105.685246 186.598622 
L 1117.083259 180.438975 
L 1128.481271 174.576144 
L 1139.822731 169.069072 
L 1151.107638 163.939861 
L 1162.392545 159.182542 
L 1173.601613 154.84337 
L 1184.734841 150.928819 
L 1195.86807 147.419721 
L 1205.712627 144.662505 
L 1214.268512 142.535127 
L 1222.824398 140.662945 
L 1230.273273 139.245589 
L 1236.615137 138.199115 
L 1242.957001 137.30491 
L 1251.271263 136.374286 
L 1258.986259 135.77354 
L 1265.454433 135.484435 
L 1271.299198 135.412237 
L 1277.835223 135.57722 
L 1280.88 135.75655 
L 1280.88 135.75655 
" clip-path="url(#pf9eb4a2052)" style="fill: none; stroke: #d62728; stroke-width: 1.5; stroke-linecap: square"/>
   </g>
   <g id="patch_15">
    <path d="M 917.984375 306.78125 
L 917.984375 47.885375 
" style="fill: none; stroke: #000000; stroke-width: 0.8; stroke-linejoin: miter; stroke-linecap: square"/>
   </g>
   <g id="patch_16">
    <path d="M 1280.88 306.78125 
L 1280.88 47.885375 
" style="fill: none; stroke: #000000; stroke-width: 0.8; stroke-linejoin: miter; stroke-linecap: square"/>
   </g>
   <g id="patch_17">
    <path d="M 917.984375 306.78125 
L 1280.88 306.78125 
" style="fill: none; stroke: #000000; stroke-width: 0.8; stroke-linejoin: miter; stroke-linecap: square"/>
   </g>
   <g id="patch_18">
    <path d="M 917.984375 47.885375 
L 1280.88 47.885375 
" style="fill: none; stroke: #000000; stroke-width: 0.8; stroke-linejoin: miter; stroke-linecap: square"/>
   </g>
   <g id="text_43">
    <!-- Cherry 1992 bubble damage -->
    <g transform="translate(978.821313 27.885375) scale(0.168 -0.168)">
     <use xlink:href="#DejaVuSans-43"/>
     <use xlink:href="#DejaVuSans-68" x="69.824219"/>
     <use xlink:href="#DejaVuSans-65" x="133.203125"/>
     <use xlink:href="#DejaVuSans-72" x="194.726562"/>
     <use xlink:href="#DejaVuSans-72" x="234.089844"/>
     <use xlink:href="#DejaVuSans-79" x="275.203125"/>
     <use xlink:href="#DejaVuSans-20" x="334.382812"/>
     <use xlink:href="#DejaVuSans-31" x="366.169922"/>
     <use xlink:href="#DejaVuSans-39" x="429.792969"/>
     <use xlink:href="#DejaVuSans-39" x="493.416016"/>
     <use xlink:href="#DejaVuSans-32" x="557.039062"/>
     <use xlink:href="#DejaVuSans-20" x="620.662109"/>
     <use xlink:href="#DejaVuSans-62" x="652.449219"/>
     <use xlink:href="#DejaVuSans-75" x="715.925781"/>
     <use xlink:href="#DejaVuSans-62" x="779.304688"/>
     <use xlink:href="#DejaVuSans-62" x="842.78125"/>
     <use xlink:href="#DejaVuSans-6c" x="906.257812"/>
     <use xlink:href="#DejaVuSans-65" x="934.041016"/>
     <use xlink:href="#DejaVuSans-20" x="995.564453"/>
     <use xlink:href="#DejaVuSans-64" x="1027.351562"/>
     <use xlink:href="#DejaVuSans-61" x="1090.828125"/>
     <use xlink:href="#DejaVuSans-6d" x="1152.107422"/>
     <use xlink:href="#DejaVuSans-61" x="1249.519531"/>
     <use xlink:href="#DejaVuSans-67" x="1310.798828"/>
     <use xlink:href="#DejaVuSans-65" x="1374.275391"/>
    </g>
   </g>
   <g id="legend_3">
    <g id="patch_19">
     <path d="M 927.784375 161.83225 
L 1051.658125 161.83225 
Q 1054.458125 161.83225 1054.458125 159.03225 
L 1054.458125 57.685375 
Q 1054.458125 54.885375 1051.658125 54.885375 
L 927.784375 54.885375 
Q 924.984375 54.885375 924.984375 57.685375 
L 924.984375 159.03225 
Q 924.984375 161.83225 927.784375 161.83225 
z
" style="fill: #ffffff; opacity: 0.8; stroke: #cccccc; stroke-linejoin: miter"/>
    </g>
    <g id="line2d_65">
     <path d="M 930.584375 66.223188 
L 944.584375 66.223188 
L 958.584375 66.223188 
" style="fill: none; stroke-dasharray: 1.5,2.475; stroke-dashoffset: 0; stroke: #000000; stroke-width: 1.5"/>
    </g>
    <g id="text_44">
     <!-- no damage -->
     <g transform="translate(969.784375 71.123188) scale(0.14 -0.14)">
      <use xlink:href="#DejaVuSans-6e"/>
      <use xlink:href="#DejaVuSans-6f" x="63.378906"/>
      <use xlink:href="#DejaVuSans-20" x="124.560547"/>
      <use xlink:href="#DejaVuSans-64" x="156.347656"/>
      <use xlink:href="#DejaVuSans-61" x="219.824219"/>
      <use xlink:href="#DejaVuSans-6d" x="281.103516"/>
      <use xlink:href="#DejaVuSans-61" x="378.515625"/>
      <use xlink:href="#DejaVuSans-67" x="439.794922"/>
      <use xlink:href="#DejaVuSans-65" x="503.271484"/>
     </g>
    </g>
    <g id="line2d_66">
     <path d="M 930.584375 86.772563 
L 944.584375 86.772563 
L 958.584375 86.772563 
" style="fill: none; stroke: #1f77b4; stroke-width: 1.5; stroke-linecap: square"/>
    </g>
    <g id="text_45">
     <!-- 200L -->
     <g transform="translate(969.784375 91.672563) scale(0.14 -0.14)">
      <use xlink:href="#DejaVuSans-32"/>
      <use xlink:href="#DejaVuSans-30" x="63.623047"/>
      <use xlink:href="#DejaVuSans-30" x="127.246094"/>
      <use xlink:href="#DejaVuSans-4c" x="190.869141"/>
     </g>
    </g>
    <g id="line2d_67">
     <path d="M 930.584375 107.321938 
L 944.584375 107.321938 
L 958.584375 107.321938 
" style="fill: none; stroke: #ff7f0e; stroke-width: 1.5; stroke-linecap: square"/>
    </g>
    <g id="text_46">
     <!-- 2000L -->
     <g transform="translate(969.784375 112.221938) scale(0.14 -0.14)">
      <use xlink:href="#DejaVuSans-32"/>
      <use xlink:href="#DejaVuSans-30" x="63.623047"/>
      <use xlink:href="#DejaVuSans-30" x="127.246094"/>
      <use xlink:href="#DejaVuSans-30" x="190.869141"/>
      <use xlink:href="#DejaVuSans-4c" x="254.492188"/>
     </g>
    </g>
    <g id="line2d_68">
     <path d="M 930.584375 127.871313 
L 944.584375 127.871313 
L 958.584375 127.871313 
" style="fill: none; stroke: #2ca02c; stroke-width: 1.5; stroke-linecap: square"/>
    </g>
    <g id="text_47">
     <!-- 20000L -->
     <g transform="translate(969.784375 132.771313) scale(0.14 -0.14)">
      <use xlink:href="#DejaVuSans-32"/>
      <use xlink:href="#DejaVuSans-30" x="63.623047"/>
      <use xlink:href="#DejaVuSans-30" x="127.246094"/>
      <use xlink:href="#DejaVuSans-30" x="190.869141"/>
      <use xlink:href="#DejaVuSans-30" x="254.492188"/>
      <use xlink:href="#DejaVuSans-4c" x="318.115234"/>
     </g>
    </g>
    <g id="line2d_69">
     <path d="M 930.584375 148.420688 
L 944.584375 148.420688 
L 958.584375 148.420688 
" style="fill: none; stroke: #d62728; stroke-width: 1.5; stroke-linecap: square"/>
    </g>
    <g id="text_48">
     <!-- 200000L -->
     <g transform="translate(969.784375 153.320688) scale(0.14 -0.14)">
      <use xlink:href="#DejaVuSans-32"/>
      <use xlink:href="#DejaVuSans-30" x="63.623047"/>
      <use xlink:href="#DejaVuSans-30" x="127.246094"/>
      <use xlink:href="#DejaVuSans-30" x="190.869141"/>
      <use xlink:href="#DejaVuSans-30" x="254.492188"/>
      <use xlink:href="#DejaVuSans-30" x="318.115234"/>
      <use xlink:href="#DejaVuSans-4c" x="381.738281"/>
     </g>
    </g>
   </g>
  </g>
 </g>
 <defs>
  <clipPath id="pca2416c238">
   <rect x="64.064375" y="47.885375" width="362.895625" height="258.895875"/>
  </clipPath>
  <clipPath id="p0466359c74">
   <rect x="491.024375" y="47.885375" width="362.895625" height="258.895875"/>
  </clipPath>
  <clipPath id="pf9eb4a2052">
   <rect x="917.984375" y="47.885375" width="362.895625" height="258.895875"/>
  </clipPath>
 </defs>
</svg>
